<?xml version="1.0" encoding="UTF-8"?>
<svg version="1.1" xmlns="http://www.w3.org/2000/svg" width="600" height="600">
<path d="M0 0 C198 0 396 0 600 0 C600 198 600 396 600 600 C402 600 204 600 0 600 C0 402 0 204 0 0 Z " fill="#FEFEFE" transform="translate(0,0)"/>
<path d="M0 0 C1.14976318 0.3700415 1.14976318 0.3700415 2.32275391 0.74755859 C13.87373575 4.55118694 26.50653277 9.00245599 36.11328125 16.69140625 C38.41339533 18.28672347 39.97805355 18.42493985 42.75 18.6875 C53.94768905 20.49115461 65.25889669 26.76710895 73 35 C73.59941406 35.60328125 74.19882812 36.2065625 74.81640625 36.828125 C87.58606208 50.39760809 91.17813564 66.7329629 91.1875 84.75 C91.19974609 85.97460938 91.21199219 87.19921875 91.22460938 88.4609375 C91.23459626 94.67943883 90.86645656 100.30895313 89.47436523 106.35888672 C88.44967681 112.06402281 88.55877623 117.9060628 88.4375 123.6875 C88.36874757 126.35038926 88.29354217 129.01304924 88.21875 131.67578125 C88.16654297 133.57191162 88.16654297 133.57191162 88.11328125 135.50634766 C87.91296372 141.68424374 87.50791599 147.84016773 87 154 C88.32 152.35 89.64 150.7 91 149 C92.32 149.33 93.64 149.66 95 150 C95.52917387 158.11978265 93.57926371 164.78190834 91.1875 172.5 C88.37982932 181.86704931 85.99095142 190.99107757 84.66796875 200.6796875 C83.95413107 204.22800347 82.84130513 206.89250771 81 210 C79 211 79 211 77 211 C76.01 210.34 75.02 209.68 74 209 C73.96261719 210.09054687 73.92523438 211.18109375 73.88671875 212.3046875 C73.10664185 231.44871767 71.70612585 255.77155957 56.97387695 269.94995117 C50.71407229 276.15762097 50.10981494 281.70365464 49.95088196 290.10389709 C49.94127639 292.77834422 49.96962161 295.4507375 50 298.125 C49.99189642 299.95835288 49.98020848 301.7916936 49.96484375 303.625 C49.93519732 308.08426637 49.95418076 312.54089658 50 317 C50.59804443 317.28738037 51.19608887 317.57476074 51.81225586 317.87084961 C54.26823664 319.13844375 56.46117708 320.68391288 58.71728516 322.27392578 C67.95418411 328.72435614 77.66150401 333.56950714 88 338 C88.7852002 338.33741211 89.57040039 338.67482422 90.37939453 339.02246094 C104.72111745 345.06822117 119.60782101 349.10166602 134.58123779 353.21817017 C141.89129418 355.23435635 149.17623812 357.33103116 156.44348145 359.49639893 C157.82570672 359.90643228 159.20920768 360.31219667 160.59411621 360.71307373 C181.75147406 366.84444028 202.7240103 375.95500663 215 395 C226.64474701 419.81251271 220 450.68748589 220 476 C67.54 476 -84.92 476 -242 476 C-242 398.10272873 -242 398.10272873 -226 382 C-208.59843968 365.53725218 -181.63805506 359.75480552 -159.14892578 354.0949707 C-149.96553741 351.77945983 -140.98414738 348.98789412 -132 346 C-131.18966309 345.73606445 -130.37932617 345.47212891 -129.54443359 345.20019531 C-110.81840397 339.08124673 -88.11323252 331.39178316 -74 317 C-73.34 317 -72.68 317 -72 317 C-71.96979779 311.44891005 -71.9855832 305.90048876 -72.04272461 300.34960938 C-72.05580849 298.46423799 -72.05664996 296.57873814 -72.04467773 294.69335938 C-71.41803905 282.60187673 -71.41803905 282.60187673 -76.30078125 272.125 C-77.51976436 271.06687976 -78.75170034 270.02337003 -80 269 C-86.45287185 259.62212395 -90.07531509 249.92049729 -93 239 C-93.1959375 238.32066406 -93.391875 237.64132812 -93.59375 236.94140625 C-95.55328663 227.57708216 -95.1423029 217.51848261 -95 208 C-95.66 208 -96.32 208 -97 208 C-97.33 208.99 -97.66 209.98 -98 211 C-100.25 210.875 -100.25 210.875 -103 210 C-108.02005195 203.8325076 -109.25299944 197.12878779 -110.375 189.5 C-111.63698052 181.42315935 -113.57835651 173.81396705 -116 166 C-117.63790498 160.62906071 -118.3773825 156.56639184 -118 151 C-117.34 150.34 -116.68 149.68 -116 149 C-113.14817424 149.19012172 -111.99629494 150.00317576 -109.8125 151.875 C-108 154 -108 154 -107 157 C-107.06711182 156.46084961 -107.13422363 155.92169922 -107.20336914 155.36621094 C-108.18871336 146.65087256 -108.31298281 137.90896268 -108.47680664 129.14794922 C-108.51670063 127.10356141 -108.56812882 125.05971035 -108.62109375 123.015625 C-108.6461499 121.81196289 -108.67120605 120.60830078 -108.69702148 119.36816406 C-109.00554647 115.93834072 -109.81841866 113.22121251 -111 110 C-116.52762173 88.56854302 -119.49334744 62.09273844 -108.2421875 41.9453125 C-93.62240389 19.05017968 -70.26714134 2.44639015 -43.64599609 -3.52832031 C-29.28452454 -6.08842024 -13.7845754 -4.48881511 0 0 Z " fill="#939599" transform="translate(311,89)"/>
</svg>
